<?xml version="1.0" encoding="UTF-8" standalone="no"?>
<svg
   xmlns:dc="http://purl.org/dc/elements/1.1/"
   xmlns:cc="http://creativecommons.org/ns#"
   xmlns:rdf="http://www.w3.org/1999/02/22-rdf-syntax-ns#"
   xmlns:svg="http://www.w3.org/2000/svg"
   xmlns="http://www.w3.org/2000/svg"
   xmlns:sodipodi="http://sodipodi.sourceforge.net/DTD/sodipodi-0.dtd"
   xmlns:inkscape="http://www.inkscape.org/namespaces/inkscape"
   id="a448ed73-4e48-47cc-b76b-53b8ab0e5d49"
   data-name="Layer 1"
   viewBox="0 0 1426.9408 379.19"
   version="1.1"
   sodipodi:docname="logo.svg"
   inkscape:version="0.92.5 (2060ec1f9f, 2020-04-08)"
   width="1426.9409"
   height="379.19">
  <metadata
     id="metadata29">
    <rdf:RDF>
      <cc:Work
         rdf:about="">
        <dc:format>image/svg+xml</dc:format>
        <dc:type
           rdf:resource="http://purl.org/dc/dcmitype/StillImage" />
      </cc:Work>
    </rdf:RDF>
  </metadata>
  <sodipodi:namedview
     pagecolor="#ffffff"
     bordercolor="#666666"
     borderopacity="1"
     objecttolerance="10"
     gridtolerance="10"
     guidetolerance="10"
     inkscape:pageopacity="0"
     inkscape:pageshadow="2"
     inkscape:window-width="1366"
     inkscape:window-height="704"
     id="namedview27"
     showgrid="false"
     inkscape:zoom="0.89537984"
     inkscape:cx="330.79324"
     inkscape:cy="117.27025"
     inkscape:window-x="0"
     inkscape:window-y="27"
     inkscape:window-maximized="1"
     inkscape:current-layer="a448ed73-4e48-47cc-b76b-53b8ab0e5d49"
     showguides="false" />
  <defs
     id="defs4">
    <style
       id="style2">.aae38d6f-184d-4a92-916f-ab2583b5fb8e{fill:#fff;}.ab320736-0ae9-4a16-9228-c3dd05f11c77{fill:#f9d542;}</style>
  </defs>
  <path
     inkscape:connector-curvature="0"
     class="aae38d6f-184d-4a92-916f-ab2583b5fb8e"
     d="m 710.28868,223.19998 h 55.99995 c 0,9.2 6.8,20 23.6,20 12.4,0 22.8,-5.2 22.8,-14 0,-6 -4.4,-8.8 -18.4,-12 l -24.4,-6.4 c -54.79995,-14.8 -56.39995,-46 -56.39995,-61.6 0,-27.6 31.2,-55.60001 76.39995,-55.60001 35.2,0 78,16.40001 77.2,63.20001 h -56 c 0,-12 -8.4,-17.6 -20,-17.6 -10,0 -18.4,4 -18.4,12 0,7.2 6.4,11.2 16,13.6 l 32.4,8.8 c 46.8,12.8 50.8,42.4 50.8,55.2 0,41.2 -42.8,59.60002 -80.4,59.60002 -41.59995,0 -81.19995,-22.80002 -81.19995,-65.20002 z"
     id="path6-3-6-6"
     style="fill:#ffffff" />
  <path
     inkscape:connector-curvature="0"
     class="aae38d6f-184d-4a92-916f-ab2583b5fb8e"
     d="m 475.68868,190.79998 c 0,60.4 -44,97.20002 -90.8,97.20002 -19.2,0 -44,-7.2 -57.6,-24.40002 V 376.79 H 268.08869 V 98.39997 h 59.19999 v 20.00001 c 13.6,-17.6 38.4,-24.80001 57.6,-24.80001 46.8,0 90.8,37.20001 90.8,97.20001 z m -60,0 c 0,-23.6 -20,-42 -43.2,-42 -22.8,0 -43.2,18 -43.2,42 0,24.4 20.8,42.4 43.2,42.4 23.2,0 43.2,-18.4 43.2,-42.4 z"
     id="path8-6-1-3"
     style="fill:#ffffff" />
  <path
     inkscape:connector-curvature="0"
     class="aae38d6f-184d-4a92-916f-ab2583b5fb8e"
     d="m 1273.2885,0 h 59.2001 v 284.8 h -59.2001 z"
     id="path12-1-5-9"
     style="fill:#ffffff;fill-opacity:1" />
  <path
     inkscape:connector-curvature="0"
     class="aae38d6f-184d-4a92-916f-ab2583b5fb8e"
     d="m 1245.6786,98.39997 v 162.00001 c 0,79.19002 -41.6,118.79002 -109.2,118.79002 -42.4,0 -78.4,-24.4 -93.2,-59.59 l 48.8,-19.6 c 6.8,15.2 24.8,27.6 44.4,27.6 30.8,0 50.4,-17.2 50.4,-60.00002 v -3.6 c -14,17.20002 -38.8,24.40002 -58,24.40002 -46.4,0 -90.4,-36.80002 -90.4,-97.20002 0,-60.4 44,-97.20001 90.4,-97.20001 19.2,0 44,7.20001 58,24.40001 V 98.39997 Z m -61.2,92.80001 c 0,-24 -20.4,-42 -42.8,-42 -23.2,0 -43.2,18.4 -43.2,42 0,23.6 20,42 43.2,42 22.8,0 42.8,-18 42.8,-42 z"
     id="path16-93-4-4"
     style="fill:#ffffff;fill-opacity:1" />
  <path
     inkscape:connector-curvature="0"
     class="ab320736-0ae9-4a16-9228-c3dd05f11c77"
     d="m 592.82868,93.45997 c -53.2,0 -101.2,38.40001 -101.2,97.60001 0,20.68 5.94,38.84 16,53.69 q 1.72,2.6 3.65,5.05 a 93.49,93.49 0 0 0 12,12.8 c 18.55,16.40002 43.42,25.66002 69.55,25.66002 26.53,0 51.87,-9.55 70.6,-26.42002 a 94.21,94.21 0 0 0 10.86,-11.5 q 2.16,-2.71 4.1,-5.59 c 10.09,-14.85 16.08,-33 16.08,-53.69 -0.04,-59.2 -48.44,-97.60001 -101.64,-97.60001 z m 0,54.80001 c 22.8,0 41.2,17.2 41.2,42.8 0,25.6 -18.4,42.4 -41.2,42.4 -22.8,0 -41.2,-16.8 -41.2,-42.4 0,-25.6 18.4,-42.8 41.2,-42.8 z"
     id="path22-1-9-8"
     style="fill:#5555ff;fill-opacity:1" />
  <polygon
     transform="translate(67.288711,-21)"
     class="aae38d6f-184d-4a92-916f-ab2583b5fb8e"
     points="412.01,107.49 412.59,111.89 412.01,111.89 "
     id="polygon24-94-0-1"
     style="fill:#ffffff" />
  <path
     inkscape:connector-curvature="0"
     class="aae38d6f-184d-4a92-916f-ab2583b5fb8e"
     d="M 981.28853,98.39997 V 31.19999 h -59.1999 v 67.19998 h -34 v 44.40001 h 34 v 42 l 59.1999,59.2 v -101.2 h 39.19997 V 98.39997 Z"
     id="path10-3-7-4-9-2"
     style="fill:#5555ff;fill-opacity:1" />
  <path
     style="fill:#ffffff;fill-opacity:1;stroke:#ffffff;stroke-width:1px;stroke-linecap:butt;stroke-linejoin:miter;stroke-opacity:1"
     d="m 921.53023,205.96238 -0.9956,78.80082 h 59.1999 l 0.59,-19.19802 z"
     id="path350-9-4-2-2-7-9"
     inkscape:connector-curvature="0"
     sodipodi:nodetypes="ccccc" />
  <path
     inkscape:connector-curvature="0"
     class="aae38d6f-184d-4a92-916f-ab2583b5fb8e"
     d="m 1362.0885,98.39997 h 59.2001 V 284.8 h -59.2001 z"
     id="path12-1-5-3-3"
     style="fill:#ffffff;fill-opacity:1;stroke-width:0.80900842" />
  <circle
     style="opacity:1;fill:#5555ff;fill-opacity:1;stroke:none;stroke-width:3.02362204;stroke-miterlimit:4;stroke-dasharray:none;stroke-opacity:1"
     id="path1798-9"
     cx="1391.4032"
     cy="36.633812"
     r="35.537773" />
  <circle
     style="opacity:1;fill:#5555ff;fill-opacity:1;stroke:none;stroke-width:3.88228869;stroke-miterlimit:4;stroke-dasharray:none;stroke-opacity:1"
     id="path1798-9-8"
     cx="156.19205"
     cy="129.77432"
     r="45.630009" />
  <circle
     style="opacity:1;fill:#ffffff;fill-opacity:1;stroke:none;stroke-width:3.88228869;stroke-miterlimit:4;stroke-dasharray:none;stroke-opacity:1"
     id="path1798-9-8-5"
     cx="45.630009"
     cy="129.89963"
     r="45.630009" />
  <circle
     style="opacity:1;fill:#ffffff;fill-opacity:1;stroke:none;stroke-width:3.88228869;stroke-miterlimit:4;stroke-dasharray:none;stroke-opacity:1"
     id="path1798-9-8-0"
     cx="156.35349"
     cy="247.85904"
     r="45.630009" />
  <circle
     style="opacity:1;fill:#ffffff;fill-opacity:1;stroke:none;stroke-width:3.88228869;stroke-miterlimit:4;stroke-dasharray:none;stroke-opacity:1"
     id="path1798-9-8-5-9"
     cx="45.791447"
     cy="247.98434"
     r="45.630009" />
</svg>
