<?xml version="1.0" encoding="UTF-8" standalone="no"?>
<svg
   xmlns:dc="http://purl.org/dc/elements/1.1/"
   xmlns:cc="http://creativecommons.org/ns#"
   xmlns:rdf="http://www.w3.org/1999/02/22-rdf-syntax-ns#"
   xmlns:svg="http://www.w3.org/2000/svg"
   xmlns="http://www.w3.org/2000/svg"
   xmlns:sodipodi="http://sodipodi.sourceforge.net/DTD/sodipodi-0.dtd"
   xmlns:inkscape="http://www.inkscape.org/namespaces/inkscape"
   id="a7210737-8957-4eb4-ba09-967bc0a34485"
   data-name="Layer 1"
   viewBox="0 0 270 250"
   version="1.1"
   sodipodi:docname="service-icon-1.svg"
   inkscape:version="0.92.5 (2060ec1f9f, 2020-04-08)">
  <metadata
     id="metadata13">
    <rdf:RDF>
      <cc:Work
         rdf:about="">
        <dc:format>image/svg+xml</dc:format>
        <dc:type
           rdf:resource="http://purl.org/dc/dcmitype/StillImage" />
      </cc:Work>
    </rdf:RDF>
  </metadata>
  <sodipodi:namedview
     pagecolor="#ffffff"
     bordercolor="#666666"
     borderopacity="1"
     objecttolerance="10"
     gridtolerance="10"
     guidetolerance="10"
     inkscape:pageopacity="0"
     inkscape:pageshadow="2"
     inkscape:window-width="775"
     inkscape:window-height="480"
     id="namedview11"
     showgrid="false"
     inkscape:zoom="0.944"
     inkscape:cx="135"
     inkscape:cy="125"
     inkscape:window-x="0"
     inkscape:window-y="27"
     inkscape:window-maximized="0"
     inkscape:current-layer="a7210737-8957-4eb4-ba09-967bc0a34485" />
  <defs
     id="defs4">
    <style
       id="style2">.bd130246-7c18-497e-be2b-cbeaafe4a7a6{fill:#f9d542;}.ab648621-4aeb-4468-9d29-839c3dbd7a20{fill:#0f0f0f;}</style>
  </defs>
  <circle
     class="bd130246-7c18-497e-be2b-cbeaafe4a7a6"
     cx="134.5"
     cy="124.5"
     r="106.5"
     id="circle6"
     style="fill:#5555ff;fill-opacity:1" />
  <path
     class="ab648621-4aeb-4468-9d29-839c3dbd7a20"
     d="M225.85,12.07l-39.16,8.16-141,29.41L6.57,57.81a4,4,0,0,0-3.1,4.74l9,43.07,9,43.07,9,43.07,9,43.08a4,4,0,0,0,4.73,3.09l39.16-8.16,141-29.41,39.16-8.17a4,4,0,0,0,3.1-4.74l-9-43.07-9-43.07-9-43.07-9-43.08A4,4,0,0,0,225.85,12.07Zm14.06,87-31.33,6.53-7.35-35.24,31.32-6.53ZM192.58,68l8.17,39.16L67.62,135,59.45,95.81,51.28,56.66,184.41,28.88ZM59.78,136.61l-31.32,6.53L21.11,107.9l31.32-6.54ZM30.09,151l31.33-6.53,7.35,35.24-31.32,6.53Zm47.33,31L69.25,142.8,202.38,115l8.17,39.16,8.17,39.15L85.59,221.12Zm132.8-68.57,31.32-6.53,7.35,35.24-31.32,6.54Zm13.35-92.68L230.92,56,199.6,62.49l-7.36-35.24ZM12.12,64.83l31.33-6.54L50.8,93.53l-31.33,6.54ZM46.43,229.29,39.08,194l31.32-6.53,7.36,35.24Zm211.45-44.12-31.33,6.54-7.35-35.24,31.33-6.54Z"
     id="path8" />
</svg>
