<?xml version="1.0" encoding="UTF-8" standalone="no"?>
<svg
   xmlns:dc="http://purl.org/dc/elements/1.1/"
   xmlns:cc="http://creativecommons.org/ns#"
   xmlns:rdf="http://www.w3.org/1999/02/22-rdf-syntax-ns#"
   xmlns:svg="http://www.w3.org/2000/svg"
   xmlns="http://www.w3.org/2000/svg"
   xmlns:sodipodi="http://sodipodi.sourceforge.net/DTD/sodipodi-0.dtd"
   xmlns:inkscape="http://www.inkscape.org/namespaces/inkscape"
   id="b09800ac-329d-4bb5-bf9b-8ce0115f2f74"
   data-name="Layer 1"
   viewBox="0 0 270 250"
   version="1.1"
   sodipodi:docname="service-icon-2.svg"
   inkscape:version="0.92.5 (2060ec1f9f, 2020-04-08)">
  <metadata
     id="metadata69">
    <rdf:RDF>
      <cc:Work
         rdf:about="">
        <dc:format>image/svg+xml</dc:format>
        <dc:type
           rdf:resource="http://purl.org/dc/dcmitype/StillImage" />
      </cc:Work>
    </rdf:RDF>
  </metadata>
  <sodipodi:namedview
     pagecolor="#ffffff"
     bordercolor="#666666"
     borderopacity="1"
     objecttolerance="10"
     gridtolerance="10"
     guidetolerance="10"
     inkscape:pageopacity="0"
     inkscape:pageshadow="2"
     inkscape:window-width="775"
     inkscape:window-height="480"
     id="namedview67"
     showgrid="false"
     inkscape:zoom="0.944"
     inkscape:cx="135"
     inkscape:cy="125"
     inkscape:window-x="0"
     inkscape:window-y="27"
     inkscape:window-maximized="0"
     inkscape:current-layer="b09800ac-329d-4bb5-bf9b-8ce0115f2f74" />
  <defs
     id="defs60">
    <style
       id="style58">.f07b52e9-4c1b-4ab9-8ef5-1e7e3883cf83{fill:#f9d542;}.fad433c7-e67f-46b3-a892-bcd6c6bdc9d4{fill:#0f0f0f;}</style>
  </defs>
  <circle
     class="f07b52e9-4c1b-4ab9-8ef5-1e7e3883cf83"
     cx="139.5"
     cy="121.31"
     r="106.5"
     id="circle62"
     style="fill:#5555ff;fill-opacity:1" />
  <path
     class="fad433c7-e67f-46b3-a892-bcd6c6bdc9d4"
     d="M220,15.19a24,24,0,0,0-21.1,35.44L159.59,89.94a31.8,31.8,0,0,0-39.18,0L89.73,59.26A15.75,15.75,0,0,0,92,51.19a16,16,0,1,0-16,16,15.75,15.75,0,0,0,8.07-2.27L114.75,95.6a31.8,31.8,0,0,0,0,39.18L64.09,185.44a23.78,23.78,0,1,0,5,6.31l51.32-51.32A31.78,31.78,0,0,0,136,146.91v40.64a24,24,0,1,0,8,0V146.91a31.78,31.78,0,0,0,15.59-6.48l30.68,30.68a15.79,15.79,0,0,0-2.27,8.08,16,16,0,1,0,16-16,15.79,15.79,0,0,0-8.08,2.27l-30.67-30.68a31.8,31.8,0,0,0,0-39.18l38.66-38.66A24,24,0,1,0,220,15.19Zm-152,36a8,8,0,1,1,8,8A8,8,0,0,1,68,51.19Zm-20,168a16,16,0,1,1,16-16A16,16,0,0,1,48,219.19Zm108-8a16,16,0,1,1-16-16A16,16,0,0,1,156,211.19Zm-16-72a24,24,0,1,1,24-24A24,24,0,0,1,140,139.19Zm72,40a8,8,0,1,1-8-8A8,8,0,0,1,212,179.19Zm8-124a16,16,0,1,1,16-16A16,16,0,0,1,220,55.19Z"
     id="path64" />
</svg>
