<?xml version="1.0" encoding="UTF-8" standalone="no"?>
<svg
   xmlns:dc="http://purl.org/dc/elements/1.1/"
   xmlns:cc="http://creativecommons.org/ns#"
   xmlns:rdf="http://www.w3.org/1999/02/22-rdf-syntax-ns#"
   xmlns:svg="http://www.w3.org/2000/svg"
   xmlns="http://www.w3.org/2000/svg"
   xmlns:sodipodi="http://sodipodi.sourceforge.net/DTD/sodipodi-0.dtd"
   xmlns:inkscape="http://www.inkscape.org/namespaces/inkscape"
   id="a7a088f1-592b-4d6a-a551-3bdd97c4908d"
   data-name="Layer 1"
   viewBox="0 0 1426 1198"
   version="1.1"
   sodipodi:docname="service-icon-01.svg"
   inkscape:version="0.92.5 (2060ec1f9f, 2020-04-08)">
  <metadata
     id="metadata56">
    <rdf:RDF>
      <cc:Work
         rdf:about="">
        <dc:format>image/svg+xml</dc:format>
        <dc:type
           rdf:resource="http://purl.org/dc/dcmitype/StillImage" />
      </cc:Work>
    </rdf:RDF>
  </metadata>
  <sodipodi:namedview
     pagecolor="#ffffff"
     bordercolor="#666666"
     borderopacity="1"
     objecttolerance="10"
     gridtolerance="10"
     guidetolerance="10"
     inkscape:pageopacity="0"
     inkscape:pageshadow="2"
     inkscape:window-width="775"
     inkscape:window-height="480"
     id="namedview54"
     showgrid="false"
     inkscape:zoom="0.19699499"
     inkscape:cx="713"
     inkscape:cy="599"
     inkscape:window-x="0"
     inkscape:window-y="27"
     inkscape:window-maximized="0"
     inkscape:current-layer="a7a088f1-592b-4d6a-a551-3bdd97c4908d" />
  <defs
     id="defs17">
    <style
       id="style15">.b8bc9b1d-6736-4d37-a811-76f75d53d38d{fill:#f9d542;}</style>
  </defs>
  <circle
     class="b8bc9b1d-6736-4d37-a811-76f75d53d38d"
     cx="710.7"
     cy="596.7"
     r="490.77"
     id="circle19"
     style="fill:#5555ff;fill-opacity:1" />
  <path
     d="M895.69,173.36A80.93,80.93,0,0,0,823,261.59l2.46,25.49-605.67,257c-7.83-34.09-39.69-58.13-75.42-54.69a70.82,70.82,0,0,0-63.64,77.2L98.13,747.65a70.81,70.81,0,0,0,77.19,63.64c35.74-3.44,62.42-33.12,63.61-68.08l44.23,9.39A68.41,68.41,0,0,0,323.3,860.73L560.13,913h0a68.17,68.17,0,0,0,81-84.39L882.5,879.93,885,905.42a80.85,80.85,0,1,0,161-15.5l-62-643.83A80.93,80.93,0,0,0,895.69,173.36ZM602.59,852a28.33,28.33,0,0,1-33.75,21.54L332,821.26A28.29,28.29,0,1,1,344.2,766l236.87,52.28A28.34,28.34,0,0,1,602.59,852ZM198.72,738a30.32,30.32,0,0,1-60.36,5.81L120.93,562.7a30.32,30.32,0,0,1,60.36-5.81l.32,3.36L198.4,734.61Zm37.08-36.75L224.69,585.89,829.48,329.25l49,508.49ZM1005.67,893.8a40.43,40.43,0,1,1-80.48,7.74L924,888.73l-59.52-618.2-1.24-12.82A40.43,40.43,0,0,1,943.68,250Z"
     id="path21" />
  <path
     d="M1194.06,530.45l-20.12,1.94a20.21,20.21,0,1,0,3.87,40.24l20.12-1.94a20.21,20.21,0,0,0-3.87-40.24Z"
     id="path23" />
  <path
     d="M1097.33,580.38l20.12-1.94a20.21,20.21,0,0,0-3.87-40.24l-20.12,1.94a20.21,20.21,0,0,0,3.87,40.24Z"
     id="path25" />
  <path
     d="M1274.54,522.7l-20.12,1.94a20.21,20.21,0,1,0,3.87,40.24l20.12-1.94a20.21,20.21,0,0,0-3.87-40.24Z"
     id="path27" />
  <path
     d="M1126.21,283.89a20.2,20.2,0,0,0,13.66-7.27L1152.72,261a20.21,20.21,0,1,0-31.18-25.71l-12.86,15.59a20.22,20.22,0,0,0,17.53,33Z"
     id="path29" />
  <path
     d="M1177.65,221.49a20.2,20.2,0,0,0,13.66-7.27l12.85-15.59A20.21,20.21,0,0,0,1173,172.92l-12.85,15.59a20.22,20.22,0,0,0,17.53,33Z"
     id="path31" />
  <path
     d="M1074.79,346.26a20.15,20.15,0,0,0,13.66-7.26l12.85-15.6a20.21,20.21,0,0,0-31.19-25.71l-12.85,15.6a20.21,20.21,0,0,0,17.53,33Z"
     id="path33" />
  <path
     d="M1094.74,420.21l-18.46,8.19a20.22,20.22,0,0,0,10.14,38.6,19.92,19.92,0,0,0,6.25-1.66l18.46-8.19a20.21,20.21,0,1,0-16.39-36.94Z"
     id="path35" />
  <path
     d="M1160.32,434.2a20.05,20.05,0,0,0,6.26-1.66l18.46-8.19a20.21,20.21,0,0,0-16.41-36.94l-18.46,8.19a20.22,20.22,0,0,0,10.15,38.6Z"
     id="path37" />
  <path
     d="M1213.8,389.43a20.23,20.23,0,0,0,20.42,11.95,21,21,0,0,0,6.24-1.64l18.46-8.17a20.23,20.23,0,0,0-16.37-37l-18.46,8.17A20.25,20.25,0,0,0,1213.8,389.43Z"
     id="path39" />
  <path
     d="M1255.57,881.63a20.21,20.21,0,1,0-25.71,31.19l15.59,12.86a20.21,20.21,0,1,0,25.71-31.19Z"
     id="path41" />
  <path
     d="M1193.17,830.2a20.21,20.21,0,1,0-25.71,31.18l15.59,12.86a20.21,20.21,0,0,0,25.71-31.19Z"
     id="path43" />
  <path
     d="M1130.79,778.78A20.21,20.21,0,1,0,1105.08,810l15.59,12.86a20.21,20.21,0,0,0,25.71-31.19Z"
     id="path45" />
  <path
     d="M1180.6,711.44l19.68,4.52a20.21,20.21,0,0,0,9-39.39l-19.68-4.52a20.21,20.21,0,1,0-9,39.39Z"
     id="path47" />
  <path
     d="M1130.54,658.49,1110.85,654a20.21,20.21,0,0,0-9.06,39.4l19.69,4.52a20.21,20.21,0,0,0,9.06-39.39Z"
     id="path49" />
  <path
     d="M1288.13,694.65l-19.69-4.5a20.22,20.22,0,0,0-9,39.43l19.69,4.5a20.69,20.69,0,0,0,6.44.41,20.22,20.22,0,0,0,2.58-39.84Z"
     id="path51" />
</svg>
